<svg width="256" height="256" viewBox="0 0 256 256" fill="none" xmlns="http://www.w3.org/2000/svg" role="img" aria-label="Logo Sebo Virtual">
  <rect width="256" height="256" rx="58" fill="url(#bg)"/>
  <path d="M61 72c0-11.6 9.4-21 21-21h80c18.2 0 33 14.8 33 33v89c0 17.7-14.3 32-32 32H86c-13.8 0-25-11.2-25-25V72Z" fill="#241813" fill-opacity=".66" stroke="#E2B47A" stroke-opacity=".34" stroke-width="4"/>
  <path d="M82 51v119c0 9.4 7.6 17 17 17h88" stroke="#D6A36D" stroke-width="12" stroke-linecap="round"/>
  <path d="M101 80h58M101 106h73M101 132h49" stroke="#FFF8F0" stroke-opacity=".84" stroke-width="9" stroke-linecap="round"/>
  <path d="M74 176c6-8 16.6-13 28-13h86" stroke="#FFFFFF" stroke-opacity=".24" stroke-width="8" stroke-linecap="round"/>
  <circle cx="183" cy="72" r="22" fill="#A85D43"/>
  <path d="M174 72h18M183 63v18" stroke="#FFF8F0" stroke-width="6" stroke-linecap="round"/>
  <defs>
    <linearGradient id="bg" x1="27" y1="20" x2="236" y2="242" gradientUnits="userSpaceOnUse">
      <stop stop-color="#6E3F2F"/>
      <stop offset=".52" stop-color="#241813"/>
      <stop offset="1" stop-color="#120F0D"/>
    </linearGradient>
  </defs>
</svg>